<?xml version="1.0" encoding="UTF-8" standalone="no"?>
<!DOCTYPE svg PUBLIC "-//W3C//DTD SVG 1.1//EN" "http://www.w3.org/Graphics/SVG/1.1/DTD/svg11.dtd">
<svg width="100%" height="100%" viewBox="0 0 2734 524" version="1.1" xmlns="http://www.w3.org/2000/svg" xmlns:xlink="http://www.w3.org/1999/xlink" xml:space="preserve" xmlns:serif="http://www.serif.com/" style="fill-rule:evenodd;clip-rule:evenodd;stroke-linejoin:round;stroke-miterlimit:2;">
    <g transform="matrix(4.16667,0,0,4.16667,197.996,408.467)">
        <path d="M0,-70.372L27.554,-51.338C32.968,-47.514 39.388,-44.369 49.171,-44.369C64.4,-44.369 78.202,-54.599 78.202,-54.599L15.328,-98.032C15.328,-98.032 8.468,-90.486 -13.062,-77.07C-35.665,-62.983 -47.519,-58.893 -47.519,-58.893L33.891,-2.657L30.276,-0.283L3.13,-19.035C-2.284,-22.86 -8.704,-26.002 -18.488,-26.002C-33.716,-26.002 -47.519,-15.774 -47.519,-15.774L15.355,27.66C15.355,27.66 22.216,20.113 43.745,6.698C66.348,-7.389 78.202,-11.479 78.202,-11.479L-3.615,-67.997L0,-70.372Z" style="fill:rgb(223,2,58);fill-rule:nonzero;"/>
    </g>
    <g transform="matrix(4.16667,0,0,4.16667,869.368,305.342)">
        <path d="M0,-19.541C-11.939,-21.087 -22.581,-21.39 -22.847,-25.734C-23.21,-31.202 -14.492,-31.769 -11.649,-31.769C-6.902,-31.769 0.791,-30.68 2.585,-23.529L33.087,-23.529C33.087,-37.272 20.056,-48.142 -11.538,-48.23C-46.673,-48.328 -52.625,-32.807 -52.625,-23.995C-52.625,-7.673 -39.969,-2.85 -12.534,0.027C-2.353,1.096 4.128,1.054 4.128,6.137C4.128,11.342 -3.616,11.883 -6.87,11.883C-9.846,11.883 -18.309,11.899 -21.066,3.333L-54.208,3.333C-52.77,19.381 -42.652,28.787 -6.918,28.688C26.736,28.591 35.544,14.943 35.544,4.509C35.544,-5.603 28.635,-15.878 0,-19.541" style="fill:rgb(2,55,144);fill-rule:nonzero;"/>
    </g>
    <g transform="matrix(4.16667,0,0,4.16667,1433.09,340.37)">
        <path d="M0,-35.972L40.313,-35.972L-1.406,2.997L-1.406,18.532L83.316,18.532L83.316,-0.08L41.164,-0.08L83.453,-38.955L83.453,-54.504L0,-54.504L0,-35.972Z" style="fill:rgb(2,55,144);fill-rule:nonzero;"/>
    </g>
    <g transform="matrix(4.16667,0,0,4.16667,-1113.55,-1484.94)">
        <rect x="895.734" y="383.57" width="27.562" height="73.036" style="fill:rgb(2,55,144);"/>
    </g>
    <g transform="matrix(4.16667,0,0,4.16667,2444.65,417.585)">
        <path d="M0,-73.036L-29.324,-47.873L-29.324,-73.036L-56.914,-73.036L-56.914,0L-29.324,0L-29.324,-25.89L-2.102,0L34.996,0L-5.348,-37.439L36.311,-73.036L0,-73.036Z" style="fill:rgb(2,55,144);fill-rule:nonzero;"/>
    </g>
    <g transform="matrix(4.16667,0,0,4.16667,1284.93,301.551)">
        <path d="M0,-45.188L0,-3.048C0,5.924 -3.257,11.883 -15.464,11.883C-27.672,11.883 -30.928,5.924 -30.928,-3.048L-30.928,-45.188L-57.355,-45.188L-57.355,-18.579C-57.355,-15.07 -57.282,-3.288 -57.215,3.304C-57.119,12.7 -54.805,30.633 -15.464,30.633C23.876,30.633 26.19,12.7 26.286,3.304C26.353,-3.288 26.427,-15.07 26.427,-18.579L26.427,-45.188L0,-45.188Z" style="fill:rgb(2,55,144);fill-rule:nonzero;"/>
    </g>
    <g transform="matrix(4.16667,0,0,4.16667,2057.86,301.551)">
        <path d="M0,-45.188L0,-3.048C0,5.924 -3.256,11.883 -15.465,11.883C-27.67,11.883 -30.928,5.924 -30.928,-3.048L-30.928,-45.188L-57.355,-45.188L-57.355,-18.579C-57.355,-15.07 -57.281,-3.288 -57.215,3.304C-57.117,12.7 -54.803,30.633 -15.465,30.633C23.877,30.633 26.189,12.7 26.287,3.304C26.354,-3.288 26.43,-15.07 26.43,-18.579L26.43,-45.188L0,-45.188Z" style="fill:rgb(2,55,144);fill-rule:nonzero;"/>
    </g>
</svg>
